<svg xmlns="http://www.w3.org/2000/svg" width="32" height="32" viewBox="0 0 32 32">
    <g fill="none" fill-rule="evenodd" stroke="#FFF" stroke-linecap="round" stroke-linejoin="round" stroke-width="1.5" opacity=".9">
        <path d="M14 4c3.314 0 6 2.686 6 6h0H8c0-3.314 2.686-6 6-6zM10 4c0-2.21 1.79-4 4-4s4 1.79 4 4M0 10h28l-1.714 13.714c-.103.822-.217 1.112-.403 1.4-.186.29-.437.511-.747.66-.31.15-.611.226-1.44.226H4.304c-.829 0-1.13-.077-1.44-.226-.31-.149-.56-.37-.747-.66-.186-.288-.3-.578-.403-1.4L0 10h0z" transform="translate(2 4)"/>
        <path d="M9.229 4H5.707c-.664 0-.904.042-1.16.13-.258.09-.48.227-.674.417C3.743 4.674 2.452 6.491 0 10h28c-2.452-3.509-3.743-5.326-3.873-5.453-.195-.19-.416-.327-.673-.416-.257-.09-.497-.131-1.161-.131h-3.667" transform="translate(2 4)"/>
    </g>
</svg>
