<svg xmlns="http://www.w3.org/2000/svg" width="56" height="56" viewBox="0 0 56 56">
    <g>
        <path d="M11.89 32.148H7.748V12.094c1.044-.462 1.775-1.514 1.775-2.735V4.284c0-1.062-.635-2.26-1.512-2.85L6.431.371C6.068.128 5.677 0 5.298 0c-.841 0-1.693.651-1.693 1.896V9.36c0 1.221.731 2.273 1.775 2.735v20.054H1.239c-.325 0-.636.135-.86.373-.223.238-.34.558-.322.885l.886 16.465c.011.646.318 1.788 2.161 2.472.933.347 2.162.538 3.46.538 1.299 0 2.528-.191 3.46-.538 1.844-.684 2.15-1.826 2.162-2.472l.886-16.465c.017-.327-.1-.647-.323-.885s-.534-.373-.859-.373zM5.973 2.933l.725.488c.214.144.458.604.458.863V9.36c0 .329-.265.597-.592.597-.326 0-.591-.268-.591-.597V2.933zM9.82 49.766c-.226.262-1.375.727-3.257.727-1.88 0-3.03-.465-3.256-.727l-.82-15.23h8.153l-.82 15.23zM30.491 15.793c-.223-.231-.528-.361-.848-.361H28.46v-1.493c.653 0 1.183-.535 1.183-1.194 0-.66-.53-1.194-1.183-1.194V8.864c0-.659-.53-1.194-1.184-1.194h-5.918c-.653 0-1.183.535-1.183 1.194v2.687c-.654 0-1.184.535-1.184 1.194 0 .66.53 1.194 1.184 1.194v1.493H18.99c-.319 0-.625.13-.848.36-.222.232-.343.544-.335.866l.888 33.193c.005.643.3 1.8 2.161 2.492.933.347 2.162.538 3.46.538 1.3 0 2.528-.191 3.46-.538 1.862-.691 2.156-1.85 2.162-2.492l.887-33.193c.009-.322-.112-.634-.335-.865zm-7.949-5.735h3.55v1.493h-3.55v-1.493zm0 3.88h3.55v1.493h-3.55V13.94zm5.031 35.829c-.227.261-1.376.726-3.256.726s-3.029-.465-3.256-.726l-.854-31.948h8.22l-.854 31.948z" transform="translate(13 2)"/>
    </g>
</svg>
