<svg xmlns="http://www.w3.org/2000/svg" width="56" height="56" viewBox="0 0 56 56">
    <path d="M54.595 12.28c-.54-2.279-1.836-4.532-3.65-6.346-1.826-1.827-4.005-3.085-6.3-3.638-2.315-.558-4.57-.322-6.349.665-.472.262-1.261.7-4.369 7.837-1.255 2.882-2.39 5.722-2.699 6.498l-7.054 7.495c-.469-.441-1.207-.433-1.666.026-.467.467-.467 1.224 0 1.692l.026.025L3.257 47.016c-1.714 1.82-1.67 4.74.099 6.509.902.902 2.104 1.355 3.307 1.355 1.154 0 2.31-.417 3.201-1.257l20.483-19.277.025.026c.467.467 1.224.467 1.692 0 .458-.459.467-1.197.025-1.666l7.581-7.135c.789-.308 3.583-1.408 6.42-2.625 7.072-3.033 7.52-3.819 7.788-4.289 1.015-1.78 1.27-4.044.717-6.378zm-46.37 39.6c-.874.823-2.33.801-3.177-.047-.849-.849-.87-2.304-.049-3.177l19.227-20.43 4.428 4.428L8.224 51.88zm22.172-20.867l-4.53-4.53 6.498-6.904 1.341 1.34.026.026 2.206 2.206.02.02 1.343 1.344-6.904 6.498zM51.83 17.417c-.849.852-6.979 3.556-12.518 5.726l-.701-.702 7.077-5.336c.528-.398.633-1.148.235-1.676-.397-.527-1.147-.632-1.675-.235l-7.346 5.538-.755-.755 5.538-7.346c.398-.527.292-1.277-.235-1.675-.528-.398-1.278-.293-1.676.235l-5.336 7.077-.732-.732c2.218-5.56 4.953-11.664 5.81-12.515 2.693-1.445 6.774-.357 9.737 2.605 2.99 2.991 4.067 7.096 2.577 9.79z"/>
</svg>
