<svg xmlns="http://www.w3.org/2000/svg" width="56" height="56" viewBox="0 0 56 56">
    <g>
        <path d="M39.829 23.865c-.377-.278-.88-.312-1.29-.089-.76.412-1.482.613-2.211.613-1.095 0-2.116-.446-3.197-.917-1.158-.505-2.356-1.028-3.724-1.028-1.182 0-2.305.396-3.407 1.204-1.102-.808-2.225-1.204-3.407-1.204-1.368 0-2.566.523-3.724 1.028-1.081.471-2.102.916-3.197.917-.728 0-1.451-.2-2.21-.613-.411-.223-.914-.189-1.29.089-.378.277-.562.747-.473 1.208.553 2.881 4.638 6.361 8.881 6.361 1.486 0 3.537-.426 5.42-2.28 1.883 1.854 3.934 2.28 5.42 2.28 4.243 0 8.328-3.48 8.882-6.361.088-.46-.096-.931-.473-1.208zm-14.792 2.72c-1.217 1.607-2.716 2.422-4.457 2.422-1.928 0-3.826-1.011-5.076-2.194.056.002.111.003.167.003h.001c1.598 0 2.96-.594 4.161-1.118.974-.425 1.894-.827 2.76-.827.536 0 1.387.13 2.586 1.241.066.062.137.114.212.158-.136.08-.256.186-.354.315zm6.383 2.422c-1.74 0-3.24-.815-4.457-2.422-.098-.13-.218-.235-.354-.315.075-.044.146-.096.212-.158 1.199-1.112 2.05-1.24 2.586-1.24.865 0 1.786.4 2.76.826 1.201.524 2.563 1.118 4.16 1.118.057 0 .113-.001.169-.003-1.25 1.183-3.148 2.194-5.076 2.194z" transform="translate(2 1)"/>
        <path d="M50.923 33.805c.622-2.229.956-4.577.956-7.003 0-2.338-.311-4.605-.891-6.762.484-.28.724-.87.544-1.425-.178-.551-.712-.886-1.264-.833-1.642-4.436-4.46-8.302-8.072-11.218.193-.501.037-1.088-.416-1.42-.45-.327-1.05-.297-1.465.035-3.802-2.542-8.308-4.103-13.158-4.318C27.007.363 26.546 0 26 0s-1.006.363-1.157.861c-4.85.215-9.356 1.776-13.158 4.318-.415-.332-1.014-.362-1.465-.034-.453.33-.61.918-.416 1.419-3.611 2.916-6.43 6.782-8.072 11.218-.552-.053-1.086.282-1.264.833-.18.555.06 1.145.545 1.425-.58 2.157-.892 4.424-.892 6.762 0 2.426.334 4.774.956 7.003-.526.264-.797.88-.61 1.46.167.512.64.838 1.15.838.071 0 .142-.007.214-.02 1.67 4.366 4.483 8.168 8.07 11.036-.328.534-.195 1.24.32 1.615.214.156.462.232.709.232.346 0 .685-.15.922-.43 3.754 2.468 8.182 3.985 12.943 4.206.04.634.563 1.137 1.205 1.137.642 0 1.166-.503 1.206-1.137 4.76-.22 9.189-1.737 12.942-4.207.237.28.577.43.922.43.247 0 .496-.075.71-.231.514-.375.647-1.08.32-1.615 3.586-2.868 6.399-6.67 8.07-11.036.07.013.142.02.213.02.51 0 .984-.326 1.15-.839.187-.579-.083-1.195-.61-1.46zM24.79 46.483v3.83c-4.228-.217-8.162-1.562-11.512-3.74l2.254-3.113c2.707 1.733 5.867 2.814 9.258 3.023zm2.418 0c3.391-.209 6.55-1.29 9.258-3.023l2.254 3.114c-3.35 2.177-7.285 3.522-11.512 3.739v-3.83zM26 44.095c-7.583 0-14.027-4.98-16.26-11.85v-.004l-.001-.003c-.542-1.67-.836-3.45-.836-5.299 0-1.848.294-3.628.836-5.297l.001-.004v-.003C11.974 14.764 18.418 9.784 26 9.784c7.583 0 14.027 4.979 16.259 11.849l.001.005.003.006c.54 1.669.834 3.448.834 5.295 0 1.848-.294 3.628-.835 5.297l-.002.005v.005c-2.233 6.87-8.677 11.85-16.26 11.85zM2.54 26.802c0-2.067.267-4.073.769-5.985l3.79 1.236c-.4 1.562-.614 3.2-.614 4.886 0 1.687.213 3.324.615 4.887L3.377 33.04c-.545-1.988-.838-4.079-.838-6.238zM27.21 7.395V3.292c4.283.219 8.267 1.598 11.645 3.828l-2.388 3.298C33.76 8.685 30.6 7.604 27.21 7.395zm-2.42 0c-3.39.21-6.55 1.29-9.257 3.023L13.145 7.12c3.378-2.23 7.362-3.609 11.646-3.828v4.103zM44.9 22.053l3.791-1.236c.502 1.912.77 3.918.77 5.985 0 2.159-.293 4.25-.838 6.237l-3.722-1.213c.4-1.563.615-3.2.615-4.887 0-1.686-.214-3.324-.615-4.886zm3.055-3.548l-3.804 1.24c-1.223-3.096-3.21-5.807-5.729-7.898l2.384-3.292c3.182 2.605 5.672 6.03 7.149 9.95zm-36.76-9.95l2.383 3.292c-2.518 2.09-4.506 4.802-5.73 7.898l-3.803-1.24c1.477-3.92 3.967-7.345 7.15-9.95zM4.137 35.343l3.71-1.21c1.224 3.097 3.212 5.808 5.73 7.898l-2.258 3.12c-3.176-2.564-5.676-5.938-7.182-9.808zm36.542 9.808l-2.258-3.12c2.518-2.09 4.506-4.801 5.73-7.898l3.71 1.21c-1.506 3.87-4.006 7.244-7.182 9.808z" transform="translate(2 1)"/>
    </g>
</svg>
