<svg xmlns="http://www.w3.org/2000/svg" width="56" height="56" viewBox="0 0 56 56">
    <path d="M55.95 1.823c-.055-.377-.284-.705-.618-.885-2.875-1.547-5.598-.722-5.713-.686-.136.042-.264.11-.377.197L43.83 4.664c-.458-.27-1.058-.207-1.451.188l-3.906 3.926c-.19.19-.31.439-.342.704-.721-.034-1.449.013-2.17.143-1.945.35-3.713 1.28-5.114 2.689L1.507 41.8c-.265.267-.391.643-.34 1.016.047.338.586 3.433 5.079 7.948 4.492 4.515 7.57 5.056 7.907 5.103.055.008.11.012.165.012.315 0 .62-.126.846-.353l29.34-29.487c1.401-1.409 2.326-3.186 2.675-5.14.13-.726.176-1.457.142-2.181.257-.032.504-.147.7-.344l3.907-3.926c.224-.226.35-.532.35-.85 0-.167-.033-.33-.098-.48l2.514-2.526c.225-.226.351-.532.351-.851 0-.32-.126-.625-.35-.851l-2.547-2.559 3.465-3.482c.268-.27.393-.65.338-1.027zM42.81 24.337L13.963 53.33c-.957-.34-3.135-1.364-6.024-4.267-2.889-2.904-3.908-5.093-4.246-6.055L32.54 14.016c2.079-2.09 5.138-2.71 7.85-1.608l4.02 4.04c1.096 2.725.479 5.8-1.6 7.89zm4.365-8.515l-.886-.89c-.012-.014-.026-.027-.04-.04l-4.312-4.334-.038-.039-.886-.89 2.212-2.224 6.162 6.193-2.212 2.224zm2.433-10.34c-.225.225-.351.531-.351.85 0 .32.126.626.35.852l2.547 2.558-1.608 1.616-4.977-5.002 4.94-3.849c.337-.069 1.118-.183 2.07-.012l-2.971 2.986z"/>
</svg>
