<svg xmlns="http://www.w3.org/2000/svg" width="28" height="28" viewBox="0 0 28 28">
    <path fill="#EDB15D" fill-rule="evenodd" d="M14 0c3.802 0 4.279.016 5.772.084 1.49.068 2.508.305 3.399.651.92.358 1.7.836 2.48 1.615.778.778 1.256 1.559 1.614 2.48.346.89.583 1.908.65 3.398C27.985 9.72 28 10.198 28 14c0 3.802-.016 4.279-.084 5.772-.068 1.49-.305 2.508-.651 3.399-.358.92-.836 1.7-1.615 2.48-.778.778-1.559 1.256-2.48 1.614-.89.346-1.908.583-3.398.65-1.493.069-1.97.085-5.772.085-3.802 0-4.279-.016-5.772-.084-1.49-.068-2.508-.305-3.399-.651-.92-.358-1.7-.836-2.48-1.615-.778-.778-1.256-1.559-1.614-2.48-.346-.89-.583-1.908-.65-3.398C.015 18.28 0 17.802 0 14c0-3.802.016-4.279.084-5.772.068-1.49.305-2.508.651-3.399.358-.92.836-1.7 1.615-2.48.778-.778 1.559-1.256 2.48-1.614.89-.346 1.908-.583 3.398-.65C9.72.015 10.198 0 14 0zm0 2.523c-3.738 0-4.181.014-5.657.081-1.365.062-2.106.29-2.6.482-.653.254-1.12.558-1.61 1.047-.49.49-.793.957-1.047 1.61-.192.494-.42 1.235-.482 2.6-.067 1.476-.081 1.919-.081 5.657s.014 4.181.081 5.657c.062 1.365.29 2.106.482 2.6.254.653.558 1.12 1.047 1.61.49.49.957.793 1.61 1.047.494.192 1.235.42 2.6.482 1.476.067 1.919.081 5.657.081s4.181-.014 5.657-.081c1.365-.062 2.106-.29 2.6-.482.653-.254 1.12-.558 1.61-1.047.49-.49.793-.957 1.047-1.61.192-.494.42-1.235.482-2.6.067-1.476.081-1.919.081-5.657s-.014-4.181-.081-5.657c-.062-1.365-.29-2.106-.482-2.6-.254-.653-.558-1.12-1.047-1.61-.49-.49-.957-.793-1.61-1.047-.494-.192-1.235-.42-2.6-.482-1.476-.067-1.919-.081-5.657-.081zM6.81 14c0-3.97 3.22-7.19 7.19-7.19s7.19 3.22 7.19 7.19-3.22 7.19-7.19 7.19S6.81 17.97 6.81 14zM14 18.667c2.577 0 4.667-2.09 4.667-4.667S16.577 9.333 14 9.333 9.333 11.423 9.333 14s2.09 4.667 4.667 4.667zm9.153-12.14c0 .928-.752 1.68-1.68 1.68-.928 0-1.68-.752-1.68-1.68 0-.928.752-1.68 1.68-1.68.928 0 1.68.752 1.68 1.68z"/>
</svg>
