<svg xmlns="http://www.w3.org/2000/svg" width="56" height="56" viewBox="0 0 56 56">
    <path d="M52.085 6.683c-1.938-1.973-6.78-1.831-10.353-.696-2.02.642-3.57 1.53-4.5 2.548l-7.142 7.268c-.366-.06-.755.052-1.037.34l-8.407 8.555-.142-.144c-.465-.474-1.22-.474-1.686 0L4.045 39.59C3.37 40.275 3 41.19 3 42.164c0 .974.371 1.888 1.045 2.574l1.676 1.705.01.011.01.01 4.357 4.434c.674.686 1.572 1.064 2.53 1.064.957 0 1.855-.378 2.529-1.064L29.93 35.863c.466-.474.466-1.242 0-1.716l-.141-.144 8.406-8.556c.282-.287.394-.683.334-1.055L51.61 11.077c.623-.59 1.03-1.232 1.192-1.899.221-.913-.034-1.8-.718-2.495zM13.47 49.182c-.223.227-.522.352-.843.352-.32 0-.62-.125-.843-.352l-3.523-3.586 7.501-7.635c.466-.474.466-1.242 0-1.716-.465-.474-1.22-.474-1.686 0L6.574 43.88l-.843-.858c-.223-.228-.346-.532-.346-.858 0-.326.123-.631.346-.859l13.93-14.176 1.686 1.716-4.32 4.397c-.466.474-.466 1.242 0 1.716s1.22.474 1.686 0l4.32-4.397 4.367 4.444-13.93 14.177zm14.632-16.896l-5.77-5.872 7.564-7.697 5.77 5.872-7.564 7.697zM37 22.515l-5.066-5.156 4.881-4.968c.069.086.143.17.224.253 1.62 1.649 5.271 1.82 8.512 1.168l-8.55 8.703zM50.487 8.598c-.034.142-.147.33-.347.544l-.017.018-.105.106c-.561.54-1.636 1.216-3.337 1.757-3.713 1.179-7.136.739-7.956-.096-.11-.111-.102-.146-.089-.199.123-.509 1.266-1.617 3.807-2.424 1.619-.515 3.182-.721 4.5-.721 1.703 0 2.993.345 3.456.816.11.112.101.147.088.2z"/>
</svg>
