<svg xmlns="http://www.w3.org/2000/svg" width="118" height="24" viewBox="0 0 118 24">
    <path fill="#F9F9F9" d="M5.616 2.486H2.393v10.641h3.223c2.193 0 3.877-.403 5.05-1.21 1.175-.807 1.762-2.171 1.762-4.094 0-1.945-.587-3.32-1.761-4.127-1.174-.807-2.858-1.21-5.051-1.21zm.033 12.73H2.393v8.386H0V.398h5.65c2.901 0 5.166.613 6.795 1.84 1.628 1.226 2.442 3.088 2.442 5.585s-.809 4.354-2.426 5.57c-1.617 1.215-3.888 1.822-6.812 1.822zM36.121 3.347C37.783 5.58 38.613 8.464 38.613 12c0 3.536-.836 6.42-2.509 8.652C34.432 22.884 32.001 24 28.81 24c-3.167 0-5.588-1.116-7.26-3.348-1.673-2.232-2.51-5.116-2.51-8.652 0-3.558.832-6.448 2.493-8.669C23.195 1.111 25.62 0 28.81 0c3.19 0 5.627 1.116 7.311 3.348zM21.533 12c0 2.917.604 5.287 1.811 7.11 1.207 1.824 3.03 2.735 5.466 2.735 2.46 0 4.293-.911 5.5-2.735 1.207-1.823 1.811-4.193 1.811-7.11 0-2.917-.604-5.287-1.81-7.11-1.208-1.824-3.041-2.735-5.5-2.735-2.46 0-4.287.906-5.483 2.718C22.13 6.685 21.533 9.06 21.533 12zM43.83 23.602V.398h2.393v21.116h11.032v2.088H43.83zm16.516-.862l.465-2.121c2.326.84 4.43 1.26 6.314 1.26 1.75 0 3.107-.349 4.07-1.045.964-.696 1.446-1.74 1.446-3.132 0-1.415-.465-2.459-1.396-3.133-.93-.674-2.437-1.331-4.519-1.972-2.105-.685-3.666-1.514-4.685-2.487-1.02-.972-1.529-2.342-1.529-4.11 0-1.923.665-3.403 1.994-4.442C63.835.519 65.652 0 67.956 0c1.993 0 3.854.331 5.582.994l-.498 2.023c-1.883-.597-3.523-.895-4.918-.895-3.434 0-5.151 1.281-5.151 3.845 0 1.237.382 2.171 1.146 2.801.714.588 1.856 1.142 3.429 1.662l.343.111c.953.31 1.717.58 2.293.813.576.232 1.218.547 1.927.944.71.398 1.252.824 1.629 1.277.376.453.697 1.033.963 1.74.266.707.399 1.503.399 2.387 0 2.143-.742 3.729-2.226 4.757C71.389 23.486 69.495 24 67.19 24c-2.57 0-4.851-.42-6.845-1.26zm33.43.862L86.331 12.83c-1.263.84-2.637 1.635-4.12 2.386v8.387h-2.393V.398h2.392v12.43c3.146-1.7 5.555-3.524 7.228-5.469 1.672-1.945 2.774-4.265 3.306-6.961h2.393c-.886 4.398-3.213 8.1-6.979 11.105l8.474 12.1h-2.858zM108.13 2.851c-1.396 3.116-2.913 7.06-4.553 11.834h9.105l-.513-1.48c-1.444-4.115-2.79-7.566-4.04-10.354zm7.41 20.751c-.62-2.143-1.34-4.42-2.16-6.829h-10.5c-.82 2.41-1.54 4.686-2.16 6.83h-2.46c2.925-9.437 5.793-17.172 8.607-23.205h2.492c3.08 6.608 5.96 14.342 8.64 23.204h-2.459z"/>
</svg>
