<svg xmlns="http://www.w3.org/2000/svg" width="32" height="32" viewBox="0 0 32 32">
    <path fill="#FFF" d="M30.838 6.832c-.306-1.293-1.041-2.571-2.07-3.6-1.037-1.036-2.273-1.75-3.575-2.064-1.313-.317-2.592-.183-3.602.377-.267.149-.715.397-2.478 4.446-.712 1.635-1.357 3.247-1.531 3.687L13.58 13.93c-.266-.25-.685-.246-.945.014-.265.265-.265.695 0 .96l.014.015-10.936 11.62c-.972 1.033-.947 2.689.056 3.692.512.512 1.194.769 1.876.769.655 0 1.31-.237 1.817-.713l11.62-10.936.014.014c.265.265.695.265.96 0 .26-.26.265-.679.014-.945l4.3-4.048c.448-.174 2.034-.798 3.643-1.489 4.012-1.72 4.267-2.166 4.418-2.433.576-1.01.72-2.294.407-3.618zM4.53 29.298c-.495.467-1.32.454-1.802-.027-.481-.481-.494-1.307-.027-1.802l10.907-11.59 2.512 2.511-11.59 10.908zm12.58-11.838l-2.57-2.57 3.686-3.917.76.76.015.015L20.254 13l.01.01.763.763-3.917 3.687zM29.27 9.746c-.482.484-3.96 2.018-7.102 3.249l-.398-.398 4.016-3.028c.3-.225.359-.65.133-.95-.226-.3-.651-.36-.95-.134L20.8 11.627l-.428-.428 3.141-4.168c.226-.299.166-.725-.133-.95-.3-.226-.725-.166-.95.133l-3.028 4.015-.415-.415c1.258-3.154 2.81-6.617 3.296-7.1 1.528-.82 3.843-.203 5.524 1.478 1.697 1.697 2.307 4.025 1.462 5.554z"/>
</svg>
