<svg xmlns="http://www.w3.org/2000/svg" width="28" height="28" viewBox="0 0 28 28">
    <path fill="#EDB15D" fill-rule="evenodd" d="M14 0C6.27 0 0 6.268 0 14c0 5.732 3.448 10.658 8.382 12.823-.04-.976-.007-2.152.242-3.216.27-1.136 1.8-7.627 1.8-7.627s-.445-.894-.445-2.216c0-2.075 1.203-3.624 2.7-3.624 1.272 0 1.888.957 1.888 2.102 0 1.28-.816 3.194-1.236 4.968-.35 1.486.744 2.696 2.21 2.696 2.652 0 4.438-3.406 4.438-7.443 0-3.067-2.066-5.364-5.825-5.364-4.246 0-6.892 3.166-6.892 6.703 0 1.221.36 2.08.922 2.746.26.308.295.43.201.782-.066.255-.22.877-.285 1.123-.094.354-.38.482-.7.35-1.957-.798-2.868-2.94-2.868-5.349 0-3.976 3.354-8.747 10.006-8.747 5.345 0 8.864 3.87 8.864 8.021 0 5.492-3.053 9.595-7.556 9.595-1.51 0-2.932-.816-3.42-1.743 0 0-.812 3.225-.984 3.847-.296 1.079-.877 2.159-1.409 2.998 1.26.372 2.59.575 3.968.575C21.732 28 28 21.732 28 14S21.732 0 14 0"/>
</svg>
