<svg xmlns="http://www.w3.org/2000/svg" width="56" height="56" viewBox="0 0 56 56">
    <path d="M53.693 19.425c-.32-.497-.963-.691-1.516-.458-3.342 1.42-4.427 3.416-6.59 7.393-.882 1.62-1.978 3.637-3.514 6.169-.144.239-.297.475-.454.709.068-2.122-.113-4.324-.546-6.587-.622-3.248-1.22-5.718-1.702-7.702-1.106-4.56-1.52-6.265-.215-8.97.256-.53.076-1.165-.425-1.49-.5-.326-1.17-.246-1.575.188-2.643 2.84-2.796 5.131-3.13 10.153l-.023.352c-.501-1.571-1.007-3.117-1.486-4.577-1.454-4.443-2.71-8.28-3.138-10.584-.105-.564-.608-.974-1.196-.974s-1.092.41-1.196.974c-.428 2.304-1.684 6.141-3.139 10.584-.608 1.859-1.258 3.842-1.886 5.843-.04-.573-.077-1.112-.11-1.618-.334-5.021-.486-7.313-3.13-10.153-.405-.434-1.074-.514-1.575-.189-.5.326-.681.96-.425 1.491 1.305 2.705.892 4.41-.215 8.97-.481 1.984-1.08 4.454-1.701 7.702-.433 2.263-.614 4.465-.547 6.587-.156-.234-.31-.47-.454-.71-1.535-2.531-2.632-4.548-3.513-6.168-2.163-3.977-3.249-5.973-6.591-7.393-.552-.234-1.196-.04-1.516.458-.32.498-.217 1.148.24 1.53 2.111 1.762 2.4 3.216 3.253 7.532.364 1.84.817 4.129 1.552 7.078 1.366 5.479 4.096 9.994 7.893 13.056 3.37 2.717 7.508 4.214 11.651 4.214.389 0 .78-.015 1.165-.042.385.027.776.042 1.165.042h.001c4.142 0 8.28-1.497 11.65-4.214 3.797-3.062 6.527-7.577 7.893-13.056.735-2.95 1.188-5.238 1.552-7.078.854-4.316 1.142-5.77 3.253-7.532.457-.382.56-1.032.24-1.53zm-17.145-1.843c.137.592.29 1.226.457 1.913.476 1.96 1.067 4.399 1.678 7.59.65 3.401.69 6.637.121 9.626-1.398 1.486-2.936 2.896-4.45 4.28-1.584 1.45-3.132 2.867-4.418 4.304.624-2.505 1.55-4.786 2.505-7.14 1.395-3.436 2.836-6.988 3.34-11.399.04-.341.076-.673.11-1l.001-.01c.294-2.76.44-4.96.56-6.763.034-.499.065-.964.096-1.4zm-10.384-2.256c.752-2.297 1.452-4.435 2.019-6.305.566 1.87 1.266 4.008 2.018 6.305 1.068 3.26 2.274 6.944 3.252 10.374-.028.26-.057.524-.088.794-.468 4.095-1.787 7.346-3.184 10.788-.797 1.963-1.607 3.958-2.242 6.121-.635-2.163-1.445-4.158-2.242-6.121-1.347-3.319-2.619-6.462-3.128-10.353 1.035-3.782 2.395-7.936 3.595-11.603zm-8.968 11.76c.61-3.192 1.202-5.631 1.677-7.591.167-.687.32-1.32.457-1.913.031.437.062.902.095 1.4.135 2.02.302 4.533.672 7.775.504 4.41 1.946 7.962 3.34 11.398.956 2.354 1.881 4.635 2.505 7.14-1.286-1.437-2.833-2.853-4.419-4.304-1.513-1.384-3.051-2.793-4.449-4.28-.568-2.989-.53-6.225.122-9.626zm-7.603 7.919c-.722-2.894-1.169-5.152-1.528-6.967-.077-.391-.151-.765-.224-1.123l.303.555c.893 1.642 2.004 3.686 3.568 6.265.916 1.512 2.053 2.929 3.281 4.263.034.042.07.081.11.118 1.534 1.654 3.202 3.181 4.757 4.604 2.938 2.688 5.737 5.248 6.619 7.74-6.112-.127-14.087-4.227-16.886-15.455zm38.22-6.967c-.36 1.815-.806 4.073-1.527 6.967-2.8 11.23-10.774 15.329-16.887 15.456.882-2.492 3.68-5.052 6.62-7.74 1.555-1.423 3.223-2.951 4.757-4.605.039-.037.075-.076.109-.117 1.228-1.335 2.365-2.752 3.281-4.263 1.564-2.58 2.675-4.623 3.568-6.265l.303-.556c-.073.358-.147.732-.224 1.123z"/>
</svg>
