<svg xmlns="http://www.w3.org/2000/svg" width="28" height="24" viewBox="0 0 28 24">
    <path fill="#EDB15D" fill-rule="evenodd" d="M28 2.841c-1.029.482-2.137.808-3.298.954 1.186-.75 2.097-1.937 2.526-3.351-1.111.693-2.34 1.198-3.65 1.468C22.531.735 21.037 0 19.384 0c-3.17 0-5.742 2.713-5.742 6.059 0 .474.049.936.147 1.38-4.774-.254-9.006-2.663-11.84-6.333-.496.898-.778 1.94-.778 3.05 0 2.1 1.014 3.955 2.555 5.042-.94-.03-1.827-.305-2.603-.756v.075c0 2.936 1.98 5.385 4.61 5.94-.481.142-.99.213-1.514.213-.37 0-.73-.036-1.08-.107.73 2.406 2.85 4.159 5.365 4.205-1.966 1.626-4.444 2.595-7.134 2.595-.464 0-.922-.027-1.371-.083C2.542 22.996 5.563 24 8.806 24 19.373 24 25.15 14.77 25.15 6.762c0-.263-.005-.527-.015-.785 1.123-.855 2.097-1.92 2.865-3.136"/>
</svg>
